<svg width="12" height="12" viewBox="0 0 12 12" fill="none" xmlns="http://www.w3.org/2000/svg">
<g clip-path="url(#clip0_28_17)">
<path d="M10.5 6.395C10.4214 7.2461 10.1019 8.0572 9.57913 8.73339C9.05633 9.40958 8.35176 9.9229 7.54786 10.2133C6.74397 10.5036 5.874 10.5591 5.03976 10.373C4.20552 10.187 3.44151 9.76727 2.83712 9.16289C2.23274 8.5585 1.81298 7.79449 1.62697 6.96025C1.44095 6.12601 1.49637 5.25604 1.78674 4.45215C2.07711 3.64825 2.59043 2.94368 3.26662 2.42088C3.94281 1.89807 4.75391 1.57865 5.60501 1.5C5.10672 2.17413 4.86694 3.00472 4.92928 3.84071C4.99162 4.67669 5.35194 5.46253 5.94471 6.0553C6.53748 6.64807 7.32332 7.00839 8.1593 7.07073C8.99529 7.13307 9.82588 6.89329 10.5 6.395Z" stroke="#525252" stroke-width="1.2" stroke-linecap="round" stroke-linejoin="round"/>
</g>
<defs>
<clipPath id="clip0_28_17">
<rect width="12" height="12" fill="white"/>
</clipPath>
</defs>
</svg>
