<svg width="12" height="12" viewBox="0 0 12 12" fill="none" xmlns="http://www.w3.org/2000/svg">
<g clip-path="url(#clip0_887_3)">
<path d="M6 2.88955C4.2849 2.88955 2.88955 4.2849 2.88955 6C2.88955 7.7151 4.2849 9.11045 6 9.11045C7.7151 9.11045 9.11045 7.7151 9.11045 6C9.11045 4.2849 7.7151 2.88955 6 2.88955ZM6 8.71982C4.50027 8.71982 3.28018 7.49973 3.28018 6C3.28018 4.50027 4.50027 3.28018 6 3.28018C7.49973 3.28018 8.71982 4.50027 8.71982 6C8.71982 7.49973 7.49973 8.71982 6 8.71982ZM6 2.31432C6.0518 2.31432 6.10148 2.29374 6.13811 2.25711C6.17474 2.22048 6.19531 2.1708 6.19531 2.119V1.19531C6.19531 1.14351 6.17474 1.09383 6.13811 1.05721C6.10148 1.02058 6.0518 1 6 1C5.9482 1 5.89852 1.02058 5.86189 1.05721C5.82526 1.09383 5.80469 1.14351 5.80469 1.19531V2.119C5.80469 2.1708 5.82526 2.22048 5.86189 2.25711C5.89852 2.29374 5.9482 2.31432 6 2.31432ZM6 9.68568C5.9482 9.68568 5.89852 9.70626 5.86189 9.74289C5.82526 9.77952 5.80469 9.8292 5.80469 9.881V10.8047C5.80469 10.8565 5.82526 10.9062 5.86189 10.9428C5.89852 10.9794 5.9482 11 6 11C6.0518 11 6.10148 10.9794 6.13811 10.9428C6.17474 10.9062 6.19531 10.8565 6.19531 10.8047V9.881C6.19531 9.8292 6.17474 9.77952 6.13811 9.74289C6.10148 9.70626 6.0518 9.68568 6 9.68568ZM3.89035 2.73662C3.91625 2.78148 3.95891 2.81422 4.00895 2.82763C4.05898 2.84103 4.1123 2.83402 4.15716 2.80812C4.20202 2.78222 4.23476 2.73955 4.24816 2.68952C4.26157 2.63948 4.25455 2.58617 4.22865 2.54131L3.7668 1.74137C3.75407 1.71898 3.73703 1.69932 3.71667 1.68354C3.69632 1.66776 3.67304 1.65616 3.64818 1.64941C3.62332 1.64266 3.59738 1.6409 3.57183 1.64422C3.54629 1.64754 3.52166 1.65588 3.49935 1.66876C3.47704 1.68164 3.4575 1.6988 3.44186 1.71926C3.42621 1.73972 3.41477 1.76308 3.40818 1.78798C3.4016 1.81288 3.40001 1.83884 3.4035 1.86436C3.40699 1.88988 3.41549 1.91446 3.42852 1.93668L3.89035 2.73662ZM8.10965 9.26338C8.08375 9.21852 8.04109 9.18578 7.99105 9.17237C7.94102 9.15897 7.8877 9.16598 7.84284 9.19188C7.79798 9.21778 7.76524 9.26045 7.75184 9.31048C7.73843 9.36052 7.74545 9.41383 7.77135 9.45869L8.2332 10.2586C8.24593 10.281 8.26297 10.3007 8.28333 10.3165C8.30368 10.3322 8.32696 10.3438 8.35182 10.3506C8.37668 10.3573 8.40262 10.3591 8.42817 10.3558C8.45371 10.3525 8.47834 10.3441 8.50065 10.3312C8.52296 10.3184 8.5425 10.3012 8.55814 10.2807C8.57379 10.2603 8.58523 10.2369 8.59182 10.212C8.5984 10.1871 8.59999 10.1612 8.5965 10.1356C8.59301 10.1101 8.58451 10.0855 8.57148 10.0633L8.10965 9.26338ZM2.73662 3.89035L1.93668 3.42852C1.91446 3.41549 1.88988 3.40699 1.86436 3.4035C1.83884 3.40001 1.81288 3.4016 1.78798 3.40818C1.76308 3.41477 1.73972 3.42621 1.71926 3.44186C1.6988 3.4575 1.68164 3.47704 1.66876 3.49935C1.65588 3.52166 1.64754 3.54629 1.64422 3.57183C1.6409 3.59738 1.64266 3.62332 1.64941 3.64818C1.65616 3.67304 1.66776 3.69632 1.68354 3.71667C1.69932 3.73703 1.71898 3.75407 1.74137 3.7668L2.54131 4.22865C2.58617 4.25455 2.63948 4.26157 2.68952 4.24816C2.73955 4.23476 2.78222 4.20202 2.80812 4.15716C2.83402 4.1123 2.84103 4.05898 2.82763 4.00895C2.81422 3.95891 2.78148 3.91625 2.73662 3.89035ZM10.2586 8.2332L9.45869 7.77135C9.41383 7.74545 9.36052 7.73843 9.31048 7.75184C9.26045 7.76524 9.21778 7.79798 9.19188 7.84284C9.16598 7.8877 9.15897 7.94102 9.17237 7.99105C9.18578 8.04109 9.21852 8.08375 9.26338 8.10965L10.0633 8.57148C10.0855 8.58451 10.1101 8.59301 10.1356 8.5965C10.1612 8.59999 10.1871 8.5984 10.212 8.59182C10.2369 8.58523 10.2603 8.57379 10.2807 8.55814C10.3012 8.5425 10.3184 8.52296 10.3312 8.50065C10.3441 8.47834 10.3525 8.45371 10.3558 8.42817C10.3591 8.40262 10.3573 8.37668 10.3506 8.35182C10.3438 8.32696 10.3322 8.30368 10.3165 8.28333C10.3007 8.26297 10.281 8.24593 10.2586 8.2332ZM2.31432 6C2.31432 5.9482 2.29374 5.89852 2.25711 5.86189C2.22048 5.82526 2.1708 5.80469 2.119 5.80469H1.19531C1.14351 5.80469 1.09383 5.82526 1.05721 5.86189C1.02058 5.89852 1 5.9482 1 6C1 6.0518 1.02058 6.10148 1.05721 6.13811C1.09383 6.17474 1.14351 6.19531 1.19531 6.19531H2.119C2.1708 6.19531 2.22048 6.17474 2.25711 6.13811C2.29374 6.10148 2.31432 6.0518 2.31432 6ZM10.8047 5.80469H9.881C9.8292 5.80469 9.77952 5.82526 9.74289 5.86189C9.70626 5.89852 9.68568 5.9482 9.68568 6C9.68568 6.0518 9.70626 6.10148 9.74289 6.13811C9.77952 6.17474 9.8292 6.19531 9.881 6.19531H10.8047C10.8565 6.19531 10.9062 6.17474 10.9428 6.13811C10.9794 6.10148 11 6.0518 11 6C11 5.9482 10.9794 5.89852 10.9428 5.86189C10.9062 5.82526 10.8565 5.80469 10.8047 5.80469ZM2.54131 7.77135L1.74137 8.2332C1.71898 8.24593 1.69932 8.26297 1.68354 8.28333C1.66776 8.30368 1.65616 8.32696 1.64941 8.35182C1.64266 8.37668 1.6409 8.40262 1.64422 8.42817C1.64754 8.45371 1.65588 8.47834 1.66876 8.50065C1.68164 8.52296 1.6988 8.5425 1.71926 8.55814C1.73972 8.57379 1.76308 8.58523 1.78798 8.59182C1.81288 8.5984 1.83884 8.59999 1.86436 8.5965C1.88988 8.59301 1.91446 8.58451 1.93668 8.57148L2.73662 8.10965C2.78148 8.08375 2.81422 8.04109 2.82763 7.99105C2.84103 7.94102 2.83402 7.8877 2.80812 7.84284C2.78222 7.79798 2.73955 7.76524 2.68952 7.75184C2.63948 7.73843 2.58617 7.74545 2.54131 7.77135ZM9.36133 4.25484C9.39555 4.25485 9.42917 4.24581 9.45879 4.22865L10.2587 3.7668C10.2811 3.75407 10.3008 3.73703 10.3166 3.71667C10.3323 3.69632 10.3439 3.67304 10.3507 3.64818C10.3574 3.62332 10.3592 3.59738 10.3559 3.57183C10.3526 3.54629 10.3442 3.52166 10.3313 3.49935C10.3185 3.47704 10.3013 3.4575 10.2808 3.44186C10.2604 3.42621 10.237 3.41477 10.2121 3.40818C10.1872 3.4016 10.1613 3.40001 10.1357 3.4035C10.1102 3.40699 10.0856 3.41549 10.0634 3.42852L9.26348 3.89035C9.22621 3.91185 9.19709 3.94505 9.18062 3.9848C9.16416 4.02455 9.16129 4.06862 9.17244 4.11017C9.18359 4.15172 9.20816 4.18843 9.24231 4.21459C9.27647 4.24075 9.31831 4.2549 9.36133 4.25484ZM4.15715 9.19189C4.11229 9.166 4.05898 9.15898 4.00895 9.17238C3.95891 9.18579 3.91625 9.21852 3.89035 9.26338L3.42852 10.0633C3.41549 10.0855 3.40699 10.1101 3.4035 10.1356C3.40001 10.1612 3.4016 10.1871 3.40818 10.212C3.41477 10.2369 3.42621 10.2603 3.44186 10.2807C3.4575 10.3012 3.47704 10.3184 3.49935 10.3312C3.52166 10.3441 3.54629 10.3525 3.57183 10.3558C3.59738 10.3591 3.62332 10.3573 3.64818 10.3506C3.67304 10.3438 3.69632 10.3322 3.71667 10.3165C3.73703 10.3007 3.75407 10.281 3.7668 10.2586L4.22865 9.45869C4.25455 9.41383 4.26156 9.36052 4.24816 9.31048C4.23475 9.26045 4.20201 9.21779 4.15715 9.19189ZM7.84285 2.80811C7.88771 2.834 7.94102 2.84102 7.99105 2.82762C8.04109 2.81421 8.08375 2.78148 8.10965 2.73662L8.57148 1.93668C8.58451 1.91446 8.59301 1.88988 8.5965 1.86436C8.59999 1.83884 8.5984 1.81288 8.59182 1.78798C8.58523 1.76308 8.57379 1.73972 8.55814 1.71926C8.5425 1.6988 8.52296 1.68164 8.50065 1.66876C8.47834 1.65588 8.45371 1.64754 8.42817 1.64422C8.40262 1.6409 8.37668 1.64266 8.35182 1.64941C8.32696 1.65616 8.30368 1.66776 8.28333 1.68354C8.26297 1.69932 8.24593 1.71898 8.2332 1.74137L7.77135 2.54131C7.74545 2.58617 7.73843 2.63948 7.75184 2.68952C7.76525 2.73955 7.79799 2.78221 7.84285 2.80811Z" fill="#525252" stroke="#525252"/>
</g>
<defs>
<clipPath id="clip0_887_3">
<rect width="12" height="12" fill="white"/>
</clipPath>
</defs>
</svg>
