<svg width="12" height="12" viewBox="0 0 12 12" fill="none" xmlns="http://www.w3.org/2000/svg">
<g clip-path="url(#clip0_887_9)">
<path d="M3.64292 3.05375L3.05375 2.46458C2.89125 2.30188 2.62708 2.30188 2.46458 2.46458C2.30188 2.62729 2.30188 2.89104 2.46458 3.05375L3.05375 3.64292C3.09237 3.6817 3.13828 3.71245 3.18884 3.73341C3.2394 3.75436 3.2936 3.7651 3.34833 3.765C3.455 3.765 3.56167 3.72437 3.64292 3.64292C3.80562 3.48021 3.80562 3.21646 3.64292 3.05375ZM2.25 5.58333H1.41667C1.18667 5.58333 1 5.77 1 6C1 6.23 1.18667 6.41667 1.41667 6.41667H2.25C2.48 6.41667 2.66667 6.23 2.66667 6C2.66667 5.77 2.48 5.58333 2.25 5.58333ZM3.64292 8.35708C3.48042 8.19437 3.21625 8.19437 3.05375 8.35708L2.46458 8.94625C2.30188 9.10896 2.30188 9.37271 2.46458 9.53542C2.54583 9.61688 2.6525 9.6575 2.75917 9.6575C2.86583 9.6575 2.9725 9.61688 3.05375 9.53542L3.64292 8.94625C3.80562 8.78354 3.80562 8.51979 3.64292 8.35708ZM6 9.33333C5.77 9.33333 5.58333 9.52 5.58333 9.75V10.5833C5.58333 10.8133 5.77 11 6 11C6.23 11 6.41667 10.8133 6.41667 10.5833V9.75C6.41667 9.52 6.23 9.33333 6 9.33333ZM9.53542 8.94625L8.94625 8.35708C8.78375 8.19437 8.51958 8.19437 8.35708 8.35708C8.19437 8.51979 8.19437 8.78354 8.35708 8.94625L8.94625 9.53542C9.0275 9.61688 9.13417 9.6575 9.24083 9.6575C9.3475 9.6575 9.45417 9.61688 9.53542 9.53542C9.69813 9.37271 9.69813 9.10896 9.53542 8.94625ZM10.5833 5.58333H9.75C9.52 5.58333 9.33333 5.77 9.33333 6C9.33333 6.23 9.52 6.41667 9.75 6.41667H10.5833C10.8133 6.41667 11 6.23 11 6C11 5.77 10.8133 5.58333 10.5833 5.58333ZM9.53542 2.46458C9.37292 2.30188 9.10875 2.30188 8.94625 2.46458L8.35708 3.05375C8.19437 3.21646 8.19437 3.48021 8.35708 3.64292C8.43833 3.72437 8.545 3.765 8.65167 3.765C8.75833 3.765 8.865 3.72437 8.94625 3.64292L9.53542 3.05375C9.69813 2.89104 9.69813 2.62729 9.53542 2.46458ZM6 1C5.77 1 5.58333 1.18667 5.58333 1.41667V2.25C5.58333 2.48 5.77 2.66667 6 2.66667C6.23 2.66667 6.41667 2.48 6.41667 2.25V1.41667C6.41667 1.18667 6.23 1 6 1ZM6 3.29167C4.50667 3.29167 3.29167 4.50667 3.29167 6C3.29167 7.49333 4.50667 8.70833 6 8.70833C7.49333 8.70833 8.70833 7.49333 8.70833 6C8.70833 4.50667 7.49333 3.29167 6 3.29167ZM6 7.875C4.96625 7.875 4.125 7.03375 4.125 6C4.125 4.96625 4.96625 4.125 6 4.125C7.03375 4.125 7.875 4.96625 7.875 6C7.875 7.03375 7.03375 7.875 6 7.875Z" fill="#525252" stroke="#525252" stroke-width="0.6"/>
</g>
<defs>
<clipPath id="clip0_887_9">
<rect width="12" height="12" fill="white"/>
</clipPath>
</defs>
</svg>
